<mxfile host="app.diagrams.net" modified="2021-05-10T01:45:09.919Z" agent="5.0 (Macintosh; Intel Mac OS X 11_0_1) AppleWebKit/537.36 (KHTML, like Gecko) Chrome/89.0.4389.114 Safari/537.36" etag="R750jf-DDRopBSViTuxB" version="14.6.11" type="github">
  <diagram id="5li1jjxqQWl-4evD_uFm" name="Page-1">
    <mxGraphModel dx="1238" dy="548" grid="1" gridSize="10" guides="1" tooltips="1" connect="1" arrows="1" fold="1" page="1" pageScale="1" pageWidth="827" pageHeight="1169" math="0" shadow="0">
      <root>
        <mxCell id="0" />
        <mxCell id="1" parent="0" />
        <mxCell id="yWy5oMXyejvU2Q47bSwC-10" value="" style="edgeStyle=orthogonalEdgeStyle;html=1;align=left;spacingLeft=2;endArrow=block;rounded=0;fillColor=#e51400;strokeColor=#B20000;" parent="1" edge="1">
          <mxGeometry x="-0.1418" y="36" relative="1" as="geometry">
            <mxPoint x="446" y="300" as="sourcePoint" />
            <Array as="points">
              <mxPoint x="507" y="300" />
              <mxPoint x="507" y="310" />
            </Array>
            <mxPoint x="446" y="310" as="targetPoint" />
            <mxPoint x="-16" y="-30" as="offset" />
          </mxGeometry>
        </mxCell>
        <mxCell id="yWy5oMXyejvU2Q47bSwC-18" value="&lt;span style=&quot;text-align: left&quot;&gt;异步截帧&lt;/span&gt;" style="edgeLabel;html=1;align=center;verticalAlign=middle;resizable=0;points=[];" parent="yWy5oMXyejvU2Q47bSwC-10" vertex="1" connectable="0">
          <mxGeometry x="-0.5816" y="-1" relative="1" as="geometry">
            <mxPoint x="16.5" y="-11" as="offset" />
          </mxGeometry>
        </mxCell>
        <mxCell id="yWy5oMXyejvU2Q47bSwC-11" value="" style="shape=umlLifeline;participant=umlActor;perimeter=lifelinePerimeter;whiteSpace=wrap;html=1;container=1;collapsible=0;recursiveResize=0;verticalAlign=top;spacingTop=36;outlineConnect=0;fillColor=#b0e3e6;strokeColor=#0e8088;" parent="1" vertex="1">
          <mxGeometry x="80" y="150" width="20" height="610" as="geometry" />
        </mxCell>
        <mxCell id="yWy5oMXyejvU2Q47bSwC-13" value="反欺诈云 sleipnir" style="shape=umlLifeline;perimeter=lifelinePerimeter;whiteSpace=wrap;html=1;container=1;collapsible=0;recursiveResize=0;outlineConnect=0;fillColor=#b0e3e6;strokeColor=#0e8088;" parent="1" vertex="1">
          <mxGeometry x="190" y="150" width="100" height="610" as="geometry" />
        </mxCell>
        <mxCell id="yWy5oMXyejvU2Q47bSwC-2" value="" style="html=1;points=[];perimeter=orthogonalPerimeter;fillColor=#e1d5e7;strokeColor=#9673a6;" parent="yWy5oMXyejvU2Q47bSwC-13" vertex="1">
          <mxGeometry x="45" y="70" width="10" height="80" as="geometry" />
        </mxCell>
        <mxCell id="yWy5oMXyejvU2Q47bSwC-27" value="" style="endArrow=blockThin;endFill=1;endSize=12;html=1;" parent="yWy5oMXyejvU2Q47bSwC-13" edge="1">
          <mxGeometry width="160" relative="1" as="geometry">
            <mxPoint x="55" y="145" as="sourcePoint" />
            <mxPoint x="245" y="145" as="targetPoint" />
          </mxGeometry>
        </mxCell>
        <mxCell id="yWy5oMXyejvU2Q47bSwC-28" value="2.2 执行任务" style="edgeLabel;html=1;align=center;verticalAlign=middle;resizable=0;points=[];" parent="yWy5oMXyejvU2Q47bSwC-27" vertex="1" connectable="0">
          <mxGeometry x="-0.1474" y="2" relative="1" as="geometry">
            <mxPoint x="14" y="-8" as="offset" />
          </mxGeometry>
        </mxCell>
        <mxCell id="yWy5oMXyejvU2Q47bSwC-31" value="" style="html=1;points=[];perimeter=orthogonalPerimeter;fillColor=#e1d5e7;strokeColor=#9673a6;" parent="yWy5oMXyejvU2Q47bSwC-13" vertex="1">
          <mxGeometry x="45" y="200" width="10" height="80" as="geometry" />
        </mxCell>
        <mxCell id="yWy5oMXyejvU2Q47bSwC-48" value="" style="html=1;points=[];perimeter=orthogonalPerimeter;fillColor=#e1d5e7;strokeColor=#9673a6;" parent="yWy5oMXyejvU2Q47bSwC-13" vertex="1">
          <mxGeometry x="45" y="345" width="10" height="80" as="geometry" />
        </mxCell>
        <mxCell id="yWy5oMXyejvU2Q47bSwC-71" value="" style="html=1;points=[];perimeter=orthogonalPerimeter;fillColor=#e1d5e7;strokeColor=#9673a6;" parent="yWy5oMXyejvU2Q47bSwC-13" vertex="1">
          <mxGeometry x="45" y="463" width="10" height="80" as="geometry" />
        </mxCell>
        <mxCell id="yWy5oMXyejvU2Q47bSwC-72" style="edgeStyle=elbowEdgeStyle;rounded=0;orthogonalLoop=1;jettySize=auto;elbow=vertical;html=1;endArrow=block;endFill=1;" parent="yWy5oMXyejvU2Q47bSwC-13" edge="1">
          <mxGeometry relative="1" as="geometry">
            <mxPoint x="245" y="470" as="sourcePoint" />
            <mxPoint x="60" y="470" as="targetPoint" />
          </mxGeometry>
        </mxCell>
        <mxCell id="yWy5oMXyejvU2Q47bSwC-73" value="3.4.1 视频截帧图片批量检测" style="edgeLabel;html=1;align=center;verticalAlign=middle;resizable=0;points=[];" parent="yWy5oMXyejvU2Q47bSwC-72" vertex="1" connectable="0">
          <mxGeometry x="0.2649" y="2" relative="1" as="geometry">
            <mxPoint x="22" y="-11" as="offset" />
          </mxGeometry>
        </mxCell>
        <mxCell id="yWy5oMXyejvU2Q47bSwC-74" style="edgeStyle=elbowEdgeStyle;rounded=0;orthogonalLoop=1;jettySize=auto;elbow=vertical;html=1;endArrow=block;endFill=1;" parent="yWy5oMXyejvU2Q47bSwC-13" source="yWy5oMXyejvU2Q47bSwC-71" edge="1">
          <mxGeometry relative="1" as="geometry">
            <mxPoint x="640" y="491" as="targetPoint" />
            <Array as="points">
              <mxPoint x="320" y="491" />
            </Array>
          </mxGeometry>
        </mxCell>
        <mxCell id="yWy5oMXyejvU2Q47bSwC-75" value="3.4.2 图像决策" style="edgeLabel;html=1;align=center;verticalAlign=middle;resizable=0;points=[];" parent="yWy5oMXyejvU2Q47bSwC-74" vertex="1" connectable="0">
          <mxGeometry x="0.5624" y="2" relative="1" as="geometry">
            <mxPoint x="18" y="-8" as="offset" />
          </mxGeometry>
        </mxCell>
        <mxCell id="yWy5oMXyejvU2Q47bSwC-76" style="edgeStyle=elbowEdgeStyle;rounded=0;orthogonalLoop=1;jettySize=auto;elbow=vertical;html=1;endArrow=open;endFill=0;dashed=1;" parent="yWy5oMXyejvU2Q47bSwC-13" edge="1">
          <mxGeometry relative="1" as="geometry">
            <mxPoint x="645" y="513" as="sourcePoint" />
            <mxPoint x="60" y="513" as="targetPoint" />
          </mxGeometry>
        </mxCell>
        <mxCell id="yWy5oMXyejvU2Q47bSwC-77" value="&amp;nbsp;3.4.3 返回图像结果" style="edgeLabel;html=1;align=center;verticalAlign=middle;resizable=0;points=[];" parent="yWy5oMXyejvU2Q47bSwC-76" vertex="1" connectable="0">
          <mxGeometry x="0.135" y="-2" relative="1" as="geometry">
            <mxPoint x="7" y="-8" as="offset" />
          </mxGeometry>
        </mxCell>
        <mxCell id="yWy5oMXyejvU2Q47bSwC-78" style="edgeStyle=elbowEdgeStyle;rounded=0;orthogonalLoop=1;jettySize=auto;elbow=vertical;html=1;dashed=1;endArrow=open;endFill=0;" parent="yWy5oMXyejvU2Q47bSwC-13" edge="1">
          <mxGeometry relative="1" as="geometry">
            <mxPoint x="55" y="538" as="sourcePoint" />
            <mxPoint x="240" y="538" as="targetPoint" />
          </mxGeometry>
        </mxCell>
        <mxCell id="yWy5oMXyejvU2Q47bSwC-79" value="3.4.4 返回图片决策结果" style="edgeLabel;html=1;align=center;verticalAlign=middle;resizable=0;points=[];" parent="yWy5oMXyejvU2Q47bSwC-78" vertex="1" connectable="0">
          <mxGeometry y="-31" relative="1" as="geometry">
            <mxPoint x="-10" y="-41" as="offset" />
          </mxGeometry>
        </mxCell>
        <mxCell id="yWy5oMXyejvU2Q47bSwC-80" value="3.4 视频截帧&lt;br&gt;&amp;nbsp; &amp;nbsp; &amp;nbsp; 图片检测" style="shape=note;whiteSpace=wrap;html=1;size=14;verticalAlign=top;align=left;spacingTop=-6;fillColor=#ffe6cc;strokeColor=#d79b00;" parent="yWy5oMXyejvU2Q47bSwC-13" vertex="1">
          <mxGeometry x="-70" y="491" width="100" height="30" as="geometry" />
        </mxCell>
        <mxCell id="yWy5oMXyejvU2Q47bSwC-14" value="" style="endArrow=blockThin;endFill=1;endSize=12;html=1;arcSize=15;startFill=0;orthogonalLoop=1;noJump=1;snapToPoint=1;fixDash=0;editable=0;metaEdit=0;" parent="1" edge="1">
          <mxGeometry width="160" relative="1" as="geometry">
            <mxPoint x="90" y="240" as="sourcePoint" />
            <mxPoint x="230" y="240" as="targetPoint" />
          </mxGeometry>
        </mxCell>
        <mxCell id="yWy5oMXyejvU2Q47bSwC-15" value="1.发起视频检测" style="edgeLabel;html=1;align=center;verticalAlign=middle;resizable=0;points=[];" parent="yWy5oMXyejvU2Q47bSwC-14" vertex="1" connectable="0">
          <mxGeometry x="0.1429" y="-32" relative="1" as="geometry">
            <mxPoint x="-10" y="-42" as="offset" />
          </mxGeometry>
        </mxCell>
        <mxCell id="yWy5oMXyejvU2Q47bSwC-19" value="视频 retina" style="shape=umlLifeline;perimeter=lifelinePerimeter;whiteSpace=wrap;html=1;container=1;collapsible=0;recursiveResize=0;outlineConnect=0;fillColor=#b0e3e6;strokeColor=#0e8088;" parent="1" vertex="1">
          <mxGeometry x="390" y="150" width="100" height="610" as="geometry" />
        </mxCell>
        <mxCell id="yWy5oMXyejvU2Q47bSwC-20" value="" style="html=1;points=[];perimeter=orthogonalPerimeter;fillColor=#e1d5e7;strokeColor=#9673a6;" parent="yWy5oMXyejvU2Q47bSwC-19" vertex="1">
          <mxGeometry x="45" y="140" width="10" height="450" as="geometry" />
        </mxCell>
        <mxCell id="yWy5oMXyejvU2Q47bSwC-21" value="文本 cangjie" style="shape=umlLifeline;perimeter=lifelinePerimeter;whiteSpace=wrap;html=1;container=1;collapsible=0;recursiveResize=0;outlineConnect=0;fillColor=#b0e3e6;strokeColor=#0e8088;" parent="1" vertex="1">
          <mxGeometry x="1130" y="153" width="100" height="613" as="geometry" />
        </mxCell>
        <mxCell id="yWy5oMXyejvU2Q47bSwC-22" value="" style="html=1;points=[];perimeter=orthogonalPerimeter;fillColor=#e1d5e7;strokeColor=#9673a6;" parent="yWy5oMXyejvU2Q47bSwC-21" vertex="1">
          <mxGeometry x="45" y="250" width="10" height="30" as="geometry" />
        </mxCell>
        <mxCell id="yWy5oMXyejvU2Q47bSwC-23" value="图像 siamat" style="shape=umlLifeline;perimeter=lifelinePerimeter;whiteSpace=wrap;html=1;container=1;collapsible=0;recursiveResize=0;outlineConnect=0;fillColor=#b0e3e6;strokeColor=#0e8088;" parent="1" vertex="1">
          <mxGeometry x="600" y="151.5" width="100" height="610" as="geometry" />
        </mxCell>
        <mxCell id="yWy5oMXyejvU2Q47bSwC-24" value="" style="html=1;points=[];perimeter=orthogonalPerimeter;fillColor=#e1d5e7;strokeColor=#9673a6;" parent="yWy5oMXyejvU2Q47bSwC-23" vertex="1">
          <mxGeometry x="45" y="363" width="10" height="40" as="geometry" />
        </mxCell>
        <mxCell id="yWy5oMXyejvU2Q47bSwC-81" value="" style="html=1;points=[];perimeter=orthogonalPerimeter;fillColor=#e1d5e7;strokeColor=#9673a6;" parent="yWy5oMXyejvU2Q47bSwC-23" vertex="1">
          <mxGeometry x="45" y="486" width="10" height="40" as="geometry" />
        </mxCell>
        <mxCell id="yWy5oMXyejvU2Q47bSwC-25" value="语音 kara" style="shape=umlLifeline;perimeter=lifelinePerimeter;whiteSpace=wrap;html=1;container=1;collapsible=0;recursiveResize=0;outlineConnect=0;fillColor=#b0e3e6;strokeColor=#0e8088;" parent="1" vertex="1">
          <mxGeometry x="790" y="153" width="100" height="610" as="geometry" />
        </mxCell>
        <mxCell id="yWy5oMXyejvU2Q47bSwC-26" value="" style="html=1;points=[];perimeter=orthogonalPerimeter;fillColor=#e1d5e7;strokeColor=#9673a6;" parent="yWy5oMXyejvU2Q47bSwC-25" vertex="1">
          <mxGeometry x="45" y="200" width="10" height="50" as="geometry" />
        </mxCell>
        <mxCell id="yWy5oMXyejvU2Q47bSwC-87" value="" style="html=1;points=[];perimeter=orthogonalPerimeter;fillColor=#e1d5e7;strokeColor=#9673a6;" parent="yWy5oMXyejvU2Q47bSwC-25" vertex="1">
          <mxGeometry x="45" y="543" width="10" height="50" as="geometry" />
        </mxCell>
        <mxCell id="yWy5oMXyejvU2Q47bSwC-38" value="" style="edgeStyle=orthogonalEdgeStyle;html=1;align=left;spacingLeft=2;endArrow=block;rounded=0;exitX=1.1;exitY=0.181;exitDx=0;exitDy=0;exitPerimeter=0;entryX=1;entryY=0.46;entryDx=0;entryDy=0;entryPerimeter=0;" parent="yWy5oMXyejvU2Q47bSwC-25" target="yWy5oMXyejvU2Q47bSwC-26" edge="1" source="yWy5oMXyejvU2Q47bSwC-26">
          <mxGeometry x="-0.1418" y="36" relative="1" as="geometry">
            <mxPoint x="256" y="207" as="sourcePoint" />
            <Array as="points">
              <mxPoint x="140" y="209" />
              <mxPoint x="140" y="223" />
            </Array>
            <mxPoint x="57" y="237" as="targetPoint" />
            <mxPoint x="-16" y="-30" as="offset" />
          </mxGeometry>
        </mxCell>
        <mxCell id="yWy5oMXyejvU2Q47bSwC-39" value="&lt;span style=&quot;text-align: left&quot;&gt;调用音频模型&lt;/span&gt;" style="edgeLabel;html=1;align=center;verticalAlign=middle;resizable=0;points=[];" parent="yWy5oMXyejvU2Q47bSwC-38" vertex="1" connectable="0">
          <mxGeometry x="-0.5816" y="-1" relative="1" as="geometry">
            <mxPoint x="3" y="-10" as="offset" />
          </mxGeometry>
        </mxCell>
        <mxCell id="yWy5oMXyejvU2Q47bSwC-29" value="" style="edgeStyle=orthogonalEdgeStyle;html=1;align=left;spacingLeft=2;endArrow=block;rounded=0;" parent="1" edge="1">
          <mxGeometry x="-0.1418" y="36" relative="1" as="geometry">
            <mxPoint x="245.5" y="252" as="sourcePoint" />
            <Array as="points">
              <mxPoint x="306" y="252" />
              <mxPoint x="306" y="272" />
            </Array>
            <mxPoint x="245.5" y="272" as="targetPoint" />
            <mxPoint x="-16" y="-30" as="offset" />
          </mxGeometry>
        </mxCell>
        <mxCell id="yWy5oMXyejvU2Q47bSwC-30" value="&lt;span style=&quot;text-align: left&quot;&gt;2.1任务异步入队&lt;/span&gt;" style="edgeLabel;html=1;align=center;verticalAlign=middle;resizable=0;points=[];" parent="yWy5oMXyejvU2Q47bSwC-29" vertex="1" connectable="0">
          <mxGeometry x="-0.5816" y="-1" relative="1" as="geometry">
            <mxPoint x="16.5" y="-11" as="offset" />
          </mxGeometry>
        </mxCell>
        <mxCell id="yWy5oMXyejvU2Q47bSwC-34" value="" style="edgeStyle=orthogonalEdgeStyle;html=1;align=left;spacingLeft=2;endArrow=block;rounded=0;" parent="1" edge="1">
          <mxGeometry x="-0.1418" y="36" relative="1" as="geometry">
            <mxPoint x="445" y="330" as="sourcePoint" />
            <Array as="points">
              <mxPoint x="506" y="330" />
              <mxPoint x="506" y="340" />
            </Array>
            <mxPoint x="445" y="340" as="targetPoint" />
            <mxPoint x="-16" y="-30" as="offset" />
          </mxGeometry>
        </mxCell>
        <mxCell id="yWy5oMXyejvU2Q47bSwC-35" value="&lt;span style=&quot;text-align: left&quot;&gt;抽取音频&lt;/span&gt;" style="edgeLabel;html=1;align=center;verticalAlign=middle;resizable=0;points=[];" parent="yWy5oMXyejvU2Q47bSwC-34" vertex="1" connectable="0">
          <mxGeometry x="-0.5816" y="-1" relative="1" as="geometry">
            <mxPoint x="16.5" y="-11" as="offset" />
          </mxGeometry>
        </mxCell>
        <mxCell id="yWy5oMXyejvU2Q47bSwC-36" style="edgeStyle=elbowEdgeStyle;rounded=0;orthogonalLoop=1;jettySize=auto;elbow=vertical;html=1;endArrow=block;endFill=1;entryX=0;entryY=0.113;entryDx=0;entryDy=0;entryPerimeter=0;" parent="1" source="yWy5oMXyejvU2Q47bSwC-20" target="yWy5oMXyejvU2Q47bSwC-26" edge="1">
          <mxGeometry relative="1" as="geometry">
            <mxPoint x="1030" y="350" as="targetPoint" />
          </mxGeometry>
        </mxCell>
        <mxCell id="yWy5oMXyejvU2Q47bSwC-37" value="3.1 异步提交音频检测任务" style="edgeLabel;html=1;align=center;verticalAlign=middle;resizable=0;points=[];" parent="yWy5oMXyejvU2Q47bSwC-36" vertex="1" connectable="0">
          <mxGeometry x="0.0338" y="3" relative="1" as="geometry">
            <mxPoint x="93" y="-6" as="offset" />
          </mxGeometry>
        </mxCell>
        <mxCell id="yWy5oMXyejvU2Q47bSwC-41" style="edgeStyle=elbowEdgeStyle;rounded=0;orthogonalLoop=1;jettySize=auto;elbow=vertical;html=1;endArrow=block;endFill=1;exitX=1;exitY=0.22;exitDx=0;exitDy=0;exitPerimeter=0;entryX=-0.1;entryY=0.073;entryDx=0;entryDy=0;entryPerimeter=0;" parent="1" edge="1" target="4UJ_CJsGeBO7C2g0HCjL-2" source="yWy5oMXyejvU2Q47bSwC-20">
          <mxGeometry relative="1" as="geometry">
            <mxPoint x="450" y="390" as="sourcePoint" />
            <mxPoint x="245" y="369" as="targetPoint" />
            <Array as="points">
              <mxPoint x="460" y="390" />
              <mxPoint x="340" y="369" />
            </Array>
          </mxGeometry>
        </mxCell>
        <mxCell id="yWy5oMXyejvU2Q47bSwC-42" value="&amp;nbsp;3.2.1 视频标题、描述过文本模型" style="edgeLabel;html=1;align=center;verticalAlign=middle;resizable=0;points=[];" parent="yWy5oMXyejvU2Q47bSwC-41" vertex="1" connectable="0">
          <mxGeometry x="0.0634" y="-1" relative="1" as="geometry">
            <mxPoint x="-78" y="-13" as="offset" />
          </mxGeometry>
        </mxCell>
        <mxCell id="yWy5oMXyejvU2Q47bSwC-43" style="edgeStyle=elbowEdgeStyle;rounded=0;orthogonalLoop=1;jettySize=auto;elbow=vertical;html=1;endArrow=block;endFill=1;exitX=0.9;exitY=0.277;exitDx=0;exitDy=0;exitPerimeter=0;entryX=0.1;entryY=0.333;entryDx=0;entryDy=0;entryPerimeter=0;" parent="1" edge="1" target="yWy5oMXyejvU2Q47bSwC-22" source="4UJ_CJsGeBO7C2g0HCjL-2">
          <mxGeometry relative="1" as="geometry">
            <mxPoint x="250" y="413" as="sourcePoint" />
            <mxPoint x="1170" y="410" as="targetPoint" />
            <Array as="points" />
          </mxGeometry>
        </mxCell>
        <mxCell id="yWy5oMXyejvU2Q47bSwC-44" value="3.2.2 调用文本服务" style="edgeLabel;html=1;align=center;verticalAlign=middle;resizable=0;points=[];" parent="yWy5oMXyejvU2Q47bSwC-43" vertex="1" connectable="0">
          <mxGeometry y="-70" relative="1" as="geometry">
            <mxPoint x="-2" y="-82" as="offset" />
          </mxGeometry>
        </mxCell>
        <mxCell id="yWy5oMXyejvU2Q47bSwC-45" style="edgeStyle=elbowEdgeStyle;rounded=0;orthogonalLoop=1;jettySize=auto;elbow=vertical;html=1;endArrow=open;endFill=0;dashed=1;" parent="1" edge="1">
          <mxGeometry relative="1" as="geometry">
            <mxPoint x="1030" y="430" as="targetPoint" />
            <Array as="points" />
            <mxPoint x="1175" y="430" as="sourcePoint" />
          </mxGeometry>
        </mxCell>
        <mxCell id="yWy5oMXyejvU2Q47bSwC-47" value="3.2.3返回结果" style="edgeLabel;html=1;align=center;verticalAlign=middle;resizable=0;points=[];" parent="yWy5oMXyejvU2Q47bSwC-45" vertex="1" connectable="0">
          <mxGeometry x="0.6051" y="-2" relative="1" as="geometry">
            <mxPoint x="51" y="-9" as="offset" />
          </mxGeometry>
        </mxCell>
        <mxCell id="yWy5oMXyejvU2Q47bSwC-46" value="3.2.4返回决策结果" style="edgeStyle=elbowEdgeStyle;rounded=0;orthogonalLoop=1;jettySize=auto;elbow=vertical;html=1;dashed=1;endArrow=open;endFill=0;exitX=-0.3;exitY=0.607;exitDx=0;exitDy=0;exitPerimeter=0;entryX=1.1;entryY=0.338;entryDx=0;entryDy=0;entryPerimeter=0;" parent="1" source="4UJ_CJsGeBO7C2g0HCjL-2" edge="1" target="yWy5oMXyejvU2Q47bSwC-20">
          <mxGeometry relative="1" as="geometry">
            <mxPoint x="450" y="443" as="targetPoint" />
            <Array as="points" />
            <mxPoint x="245" y="443" as="sourcePoint" />
          </mxGeometry>
        </mxCell>
        <mxCell id="yWy5oMXyejvU2Q47bSwC-49" style="edgeStyle=elbowEdgeStyle;rounded=0;orthogonalLoop=1;jettySize=auto;elbow=vertical;html=1;endArrow=block;endFill=1;" parent="1" edge="1">
          <mxGeometry relative="1" as="geometry">
            <mxPoint x="435" y="505" as="sourcePoint" />
            <mxPoint x="250" y="505" as="targetPoint" />
          </mxGeometry>
        </mxCell>
        <mxCell id="yWy5oMXyejvU2Q47bSwC-50" value="3.3.1 视频封面检测" style="edgeLabel;html=1;align=center;verticalAlign=middle;resizable=0;points=[];" parent="yWy5oMXyejvU2Q47bSwC-49" vertex="1" connectable="0">
          <mxGeometry x="0.2649" y="2" relative="1" as="geometry">
            <mxPoint x="12" y="-11" as="offset" />
          </mxGeometry>
        </mxCell>
        <mxCell id="yWy5oMXyejvU2Q47bSwC-51" style="edgeStyle=elbowEdgeStyle;rounded=0;orthogonalLoop=1;jettySize=auto;elbow=vertical;html=1;endArrow=block;endFill=1;" parent="1" source="yWy5oMXyejvU2Q47bSwC-48" edge="1">
          <mxGeometry relative="1" as="geometry">
            <mxPoint x="830" y="523" as="targetPoint" />
            <Array as="points">
              <mxPoint x="510" y="523" />
            </Array>
          </mxGeometry>
        </mxCell>
        <mxCell id="yWy5oMXyejvU2Q47bSwC-52" value="3.3.2 图像决策" style="edgeLabel;html=1;align=center;verticalAlign=middle;resizable=0;points=[];" parent="yWy5oMXyejvU2Q47bSwC-51" vertex="1" connectable="0">
          <mxGeometry x="0.5624" y="2" relative="1" as="geometry">
            <mxPoint x="18" y="-5" as="offset" />
          </mxGeometry>
        </mxCell>
        <mxCell id="yWy5oMXyejvU2Q47bSwC-53" value="3.2 视频标题、&lt;br&gt;&amp;nbsp; &amp;nbsp; &amp;nbsp; 描述检测" style="shape=note;whiteSpace=wrap;html=1;size=14;verticalAlign=top;align=left;spacingTop=-6;fillColor=#ffe6cc;strokeColor=#d79b00;" parent="1" vertex="1">
          <mxGeometry x="120" y="350" width="100" height="30" as="geometry" />
        </mxCell>
        <mxCell id="yWy5oMXyejvU2Q47bSwC-54" style="edgeStyle=elbowEdgeStyle;rounded=0;orthogonalLoop=1;jettySize=auto;elbow=vertical;html=1;endArrow=open;endFill=0;dashed=1;" parent="1" edge="1">
          <mxGeometry relative="1" as="geometry">
            <mxPoint x="835" y="545" as="sourcePoint" />
            <mxPoint x="250" y="545" as="targetPoint" />
          </mxGeometry>
        </mxCell>
        <mxCell id="yWy5oMXyejvU2Q47bSwC-55" value="&amp;nbsp;3.3.3 返回图像结果" style="edgeLabel;html=1;align=center;verticalAlign=middle;resizable=0;points=[];" parent="yWy5oMXyejvU2Q47bSwC-54" vertex="1" connectable="0">
          <mxGeometry x="0.135" y="-2" relative="1" as="geometry">
            <mxPoint x="7" y="-8" as="offset" />
          </mxGeometry>
        </mxCell>
        <mxCell id="yWy5oMXyejvU2Q47bSwC-56" style="edgeStyle=elbowEdgeStyle;rounded=0;orthogonalLoop=1;jettySize=auto;elbow=vertical;html=1;dashed=1;endArrow=open;endFill=0;" parent="1" edge="1">
          <mxGeometry relative="1" as="geometry">
            <mxPoint x="245" y="570" as="sourcePoint" />
            <mxPoint x="430" y="570" as="targetPoint" />
          </mxGeometry>
        </mxCell>
        <mxCell id="yWy5oMXyejvU2Q47bSwC-57" value="3.3.4 返回封面决策结果" style="edgeLabel;html=1;align=center;verticalAlign=middle;resizable=0;points=[];" parent="yWy5oMXyejvU2Q47bSwC-56" vertex="1" connectable="0">
          <mxGeometry y="-31" relative="1" as="geometry">
            <mxPoint x="-10" y="-41" as="offset" />
          </mxGeometry>
        </mxCell>
        <mxCell id="yWy5oMXyejvU2Q47bSwC-58" value="3.1&amp;nbsp; 音频检测" style="shape=note;whiteSpace=wrap;html=1;size=14;verticalAlign=top;align=left;spacingTop=-6;fillColor=#ffe6cc;strokeColor=#d79b00;" parent="1" vertex="1">
          <mxGeometry x="930" y="486" width="100" height="20" as="geometry" />
        </mxCell>
        <mxCell id="yWy5oMXyejvU2Q47bSwC-59" value="3.3 视频封面&lt;br&gt;&amp;nbsp; &amp;nbsp; &amp;nbsp; 检测" style="shape=note;whiteSpace=wrap;html=1;size=14;verticalAlign=top;align=left;spacingTop=-6;fillColor=#ffe6cc;strokeColor=#d79b00;" parent="1" vertex="1">
          <mxGeometry x="120" y="523" width="100" height="30" as="geometry" />
        </mxCell>
        <mxCell id="yWy5oMXyejvU2Q47bSwC-83" value="" style="edgeStyle=orthogonalEdgeStyle;html=1;align=left;spacingLeft=2;endArrow=block;rounded=0;entryX=0.9;entryY=0.6;entryDx=0;entryDy=0;entryPerimeter=0;dashed=1;dashPattern=1 4;strokeColor=#FF0000;" parent="1" edge="1">
          <mxGeometry x="-0.1418" y="36" relative="1" as="geometry">
            <mxPoint x="1036" y="513" as="sourcePoint" />
            <Array as="points">
              <mxPoint x="930" y="513" />
              <mxPoint x="930" y="541" />
            </Array>
            <mxPoint x="1034" y="541" as="targetPoint" />
            <mxPoint x="-16" y="-30" as="offset" />
          </mxGeometry>
        </mxCell>
        <mxCell id="yWy5oMXyejvU2Q47bSwC-84" value="&lt;span style=&quot;text-align: left&quot;&gt;调用文本决策&lt;/span&gt;" style="edgeLabel;html=1;align=center;verticalAlign=middle;resizable=0;points=[];" parent="yWy5oMXyejvU2Q47bSwC-83" vertex="1" connectable="0">
          <mxGeometry x="-0.5816" y="-1" relative="1" as="geometry">
            <mxPoint x="-96" y="16" as="offset" />
          </mxGeometry>
        </mxCell>
        <mxCell id="yWy5oMXyejvU2Q47bSwC-85" value="调用文本决策&lt;br&gt;逻辑和 【3.2 视频标题检测】逻辑相同，不再细画" style="shape=note;whiteSpace=wrap;html=1;size=14;verticalAlign=top;align=left;spacingTop=-6;fillColor=#ffe6cc;strokeColor=#d79b00;" parent="1" vertex="1">
          <mxGeometry x="1060" y="493" width="100" height="60" as="geometry" />
        </mxCell>
        <mxCell id="yWy5oMXyejvU2Q47bSwC-86" style="edgeStyle=elbowEdgeStyle;rounded=0;orthogonalLoop=1;jettySize=auto;elbow=vertical;html=1;startArrow=none;startFill=0;endArrow=blockThin;endFill=1;" parent="1" edge="1">
          <mxGeometry relative="1" as="geometry">
            <mxPoint x="445" y="703" as="sourcePoint" />
            <mxPoint x="1030" y="703" as="targetPoint" />
          </mxGeometry>
        </mxCell>
        <mxCell id="yWy5oMXyejvU2Q47bSwC-88" value="3.5.1 轮训音频结果" style="edgeLabel;html=1;align=center;verticalAlign=middle;resizable=0;points=[];" parent="yWy5oMXyejvU2Q47bSwC-86" vertex="1" connectable="0">
          <mxGeometry x="0.4872" y="1" relative="1" as="geometry">
            <mxPoint x="40" y="-9" as="offset" />
          </mxGeometry>
        </mxCell>
        <mxCell id="yWy5oMXyejvU2Q47bSwC-89" style="edgeStyle=elbowEdgeStyle;rounded=0;orthogonalLoop=1;jettySize=auto;elbow=vertical;html=1;startArrow=classicThin;startFill=1;endArrow=none;endFill=0;dashed=1;" parent="1" edge="1">
          <mxGeometry relative="1" as="geometry">
            <mxPoint x="445" y="733" as="sourcePoint" />
            <mxPoint x="1030" y="733" as="targetPoint" />
          </mxGeometry>
        </mxCell>
        <mxCell id="yWy5oMXyejvU2Q47bSwC-90" value="3.5.2 返回音频结果" style="edgeLabel;html=1;align=center;verticalAlign=middle;resizable=0;points=[];" parent="yWy5oMXyejvU2Q47bSwC-89" vertex="1" connectable="0">
          <mxGeometry x="0.4872" y="1" relative="1" as="geometry">
            <mxPoint x="30" y="-9" as="offset" />
          </mxGeometry>
        </mxCell>
        <mxCell id="yWy5oMXyejvU2Q47bSwC-91" value="" style="edgeStyle=orthogonalEdgeStyle;html=1;align=left;spacingLeft=2;endArrow=block;rounded=0;" parent="1" edge="1">
          <mxGeometry x="-0.1418" y="36" relative="1" as="geometry">
            <mxPoint x="446" y="760" as="sourcePoint" />
            <Array as="points">
              <mxPoint x="507" y="760" />
              <mxPoint x="507" y="780" />
              <mxPoint x="446" y="780" />
            </Array>
            <mxPoint x="446" y="780" as="targetPoint" />
            <mxPoint x="-16" y="-30" as="offset" />
          </mxGeometry>
        </mxCell>
        <mxCell id="yWy5oMXyejvU2Q47bSwC-92" value="&lt;span style=&quot;text-align: left&quot;&gt;3.6 合并结果，入库&lt;/span&gt;" style="edgeLabel;html=1;align=center;verticalAlign=middle;resizable=0;points=[];" parent="yWy5oMXyejvU2Q47bSwC-91" vertex="1" connectable="0">
          <mxGeometry x="-0.5816" y="-1" relative="1" as="geometry">
            <mxPoint x="34" y="-11" as="offset" />
          </mxGeometry>
        </mxCell>
        <mxCell id="4UJ_CJsGeBO7C2g0HCjL-1" value="文本 cangjie" style="shape=umlLifeline;perimeter=lifelinePerimeter;whiteSpace=wrap;html=1;container=1;collapsible=0;recursiveResize=0;outlineConnect=0;fillColor=#b0e3e6;strokeColor=#0e8088;" vertex="1" parent="1">
          <mxGeometry x="970" y="151.5" width="100" height="613" as="geometry" />
        </mxCell>
        <mxCell id="4UJ_CJsGeBO7C2g0HCjL-2" value="" style="html=1;points=[];perimeter=orthogonalPerimeter;fillColor=#e1d5e7;strokeColor=#9673a6;" vertex="1" parent="4UJ_CJsGeBO7C2g0HCjL-1">
          <mxGeometry x="45" y="230" width="10" height="103" as="geometry" />
        </mxCell>
      </root>
    </mxGraphModel>
  </diagram>
</mxfile>
